<svg width="65" height="65" viewBox="0 0 65 65" fill="none" xmlns="http://www.w3.org/2000/svg">
<path d="M48.6801 22.5858L42.6801 19.0858L46.1801 23.0858L48.6801 22.5858Z" fill="url(#paint0_linear)"/>
<path d="M60.3801 27.0858L60.5801 31.4858L63.2801 28.8858L60.3801 27.0858Z" fill="url(#paint1_linear)"/>
<path fill-rule="evenodd" clip-rule="evenodd" d="M43.9247 0L43.5882 12.0019L50.7199 16.1202L50.1202 20.618L64.1191 28.5882L54.8025 37.2548L46.799 34.5537L33.8973 46.3V64.5L15.5801 42.4921V48.9158L5.86458 36.7219L6.20532 42.9687L0 31.0545L3.83769 25.298L12.8198 20.8069L6.95422 19.0818L16.0742 17.3446L12.597 15.3162L21.8301 12.8084L33.93 8.48003L38.2915 0.316203L39.9533 5.40554L43.9247 0ZM40.338 6.57088L41.0278 8.57761L42.7434 6.45449L42.8354 3.17166L40.338 6.57088ZM42.6971 8.10279L31.3942 22.0912L46.914 33.5371L54.5576 36.1168L62.441 28.7835L49.0399 21.1537L49.6402 16.6515L42.5719 12.5698L42.6971 8.10279ZM45.8927 34.0264L31.2998 23.2642L33.6712 45.1536L45.8927 34.0264ZM32.9354 46.6132L17 42.4921L32.9354 62V46.6132ZM15.9571 41.1959L32.7051 45.5209L30.312 23.4305L15.9571 41.1959ZM31.7854 20.0159L34.7478 9.07132L38.0686 2.85545L39.3047 6.64103L40.286 9.4957L31.7854 20.0159ZM33.5474 9.67895L22.8827 13.494L30.426 21.2107L33.5474 9.67895ZM30.0089 22.2145L26.1941 18.3121L14.6974 21.0757L15.5224 40.1428L30.0089 22.2145ZM14.5388 40.5435L13.7139 21.4779L4.71704 25.9764L5.74952 34.8932L14.5388 40.5435ZM7.56148 37.2469L14.5801 41.7588V46.0559L7.56148 37.2469ZM4.95479 38.4029L3.84013 27.0971L1.16011 31.1171L4.95479 38.4029ZM14.193 20.1685L21.4528 18.4233L17.5063 18.0898L11.2059 19.2899L14.193 20.1685ZM17.6346 17.0971L25.6703 17.7762L21.8278 13.8453L15.1632 15.6554L17.6346 17.0971Z" fill="url(#paint2_linear)"/>
<defs>
<linearGradient id="paint0_linear" x1="42.6801" y1="21.0617" x2="48.6799" y2="21.0913" gradientUnits="userSpaceOnUse">
<stop stop-color="#E0BD69"/>
<stop offset="1" stop-color="#947034"/>
</linearGradient>
<linearGradient id="paint1_linear" x1="21.7549" y1="15.854" x2="34.7002" y2="15.8101" gradientUnits="userSpaceOnUse">
<stop stop-color="#E0BD69"/>
<stop offset="1" stop-color="#947034"/>
</linearGradient>
<linearGradient id="paint2_linear" x1="21.7549" y1="15.854" x2="34.7002" y2="15.8101" gradientUnits="userSpaceOnUse">
<stop stop-color="#E0BD69"/>
<stop offset="1" stop-color="#947034"/>
</linearGradient>
</defs>
</svg>
