<svg width="24" height="24" viewBox="0 0 24 24" fill="none" xmlns="http://www.w3.org/2000/svg">
<path d="M22 12.0828C21.9944 12.1199 21.9852 12.157 21.9842 12.1941C21.9258 13.8282 21.4739 15.3454 20.6537 16.7418C19.5662 18.5928 18.0418 19.934 16.0942 20.7644C15.9234 20.8376 15.7481 20.9004 15.5736 20.9642C15.4577 21.007 15.337 21.0098 15.2173 20.9813C15.0197 20.9337 14.8935 20.7654 14.8815 20.5342C14.8796 20.4933 14.8805 20.4515 14.8805 20.4106C14.8852 19.5478 14.8907 18.686 14.8935 17.8233C14.8945 17.4885 14.8527 17.1593 14.7479 16.8407C14.6532 16.5506 14.5122 16.2899 14.2941 16.0769C14.2876 16.0702 14.283 16.0626 14.2672 16.0426C14.3646 16.0284 14.4537 16.016 14.5428 16.0027C15.1014 15.9228 15.6497 15.7982 16.173 15.5784C17.3301 15.0924 18.0575 14.222 18.3804 12.9893C18.4899 12.5717 18.5484 12.1455 18.5716 11.7137C18.5864 11.4378 18.5929 11.163 18.5716 10.8871C18.5094 10.0605 18.2153 9.33283 17.691 8.70314C17.679 8.68887 17.6678 8.6727 17.6539 8.66033C17.6186 8.62799 17.6177 8.59565 17.6335 8.54999C17.7022 8.35595 17.7458 8.15524 17.7736 7.95073C17.8367 7.48274 17.7996 7.02046 17.6855 6.56483C17.6474 6.41169 17.5908 6.2633 17.5481 6.1111C17.5277 6.03786 17.4841 6.01503 17.4136 6.01028C17.1983 5.99506 16.9877 6.02455 16.7799 6.07876C16.3818 6.18245 16.0088 6.35081 15.6525 6.55627C15.4215 6.68944 15.1969 6.83687 14.9715 6.98146C14.9232 7.0119 14.8833 7.02331 14.8258 7.00714C13.9814 6.77314 13.1204 6.67517 12.2463 6.70275C11.5644 6.72368 10.8917 6.8207 10.2329 7.00619C10.1726 7.02331 10.129 7.01475 10.0789 6.98051C9.64834 6.68658 9.20111 6.425 8.71677 6.23191C8.47088 6.13393 8.22036 6.05403 7.95778 6.02455C7.84458 6.01218 7.72952 6.01694 7.6154 6.01503C7.55787 6.01408 7.52818 6.04357 7.50869 6.09874C7.30178 6.66471 7.20621 7.24779 7.26652 7.85181C7.28972 8.0858 7.33518 8.31505 7.41498 8.53668C7.43446 8.59089 7.4289 8.62704 7.39085 8.67175C6.90837 9.23391 6.61516 9.88739 6.50846 10.6284C6.46949 10.8985 6.46021 11.1715 6.46856 11.4445C6.48248 11.8821 6.52145 12.3177 6.61424 12.7458C6.73857 13.3212 6.94641 13.8596 7.28786 14.339C7.68962 14.9021 8.22036 15.294 8.84203 15.5642C9.26235 15.7468 9.7003 15.8657 10.1494 15.9456C10.3257 15.977 10.5038 15.9998 10.681 16.0265C10.7089 16.0303 10.7358 16.0369 10.7692 16.0436C10.7618 16.0569 10.7571 16.0693 10.7497 16.0769C10.4741 16.3518 10.322 16.6933 10.2347 17.0699C10.218 17.1403 10.206 17.2126 10.1958 17.2849C10.1902 17.3239 10.1754 17.3477 10.1392 17.3629C9.66411 17.5655 9.17606 17.6635 8.66388 17.5436C8.30665 17.4599 8.00881 17.2697 7.75736 16.9986C7.63303 16.8645 7.52911 16.7161 7.43354 16.5591C7.26745 16.2842 7.06425 16.0436 6.81094 15.8486C6.61795 15.7002 6.40639 15.5927 6.16515 15.5547C6.01113 15.5299 5.85617 15.5318 5.70401 15.5661C5.50916 15.6098 5.46926 15.7268 5.59452 15.8866C5.67895 15.9941 5.7838 16.0797 5.90071 16.1454C6.08721 16.249 6.23381 16.3974 6.36093 16.5658C6.61052 16.8959 6.81744 17.2497 6.97053 17.6378C7.18394 18.1819 7.58385 18.5148 8.12201 18.6851C8.52006 18.8116 8.92924 18.8392 9.34214 18.8078C9.58524 18.7888 9.82741 18.7507 10.0696 18.7212C10.0872 18.7193 10.1058 18.7165 10.1308 18.7136C10.1336 18.7421 10.1373 18.7659 10.1373 18.7897C10.141 19.3538 10.1447 19.9188 10.1466 20.4828C10.1466 20.5399 10.1438 20.5979 10.1299 20.6522C10.077 20.87 9.90071 20.9984 9.65483 20.9936C9.57875 20.9917 9.49988 20.9794 9.42843 20.9546C6.68939 19.992 4.53583 17.8185 3.55601 15.0286C3.32961 14.3828 3.17373 13.7188 3.08559 13.0378C3.03363 12.6411 3.00579 12.2426 3.00022 11.844C2.99651 11.2914 3.03919 10.7416 3.12363 10.1956C3.27301 9.23105 3.55972 8.31124 3.98004 7.43518C5.22337 4.8422 7.57364 2.92077 10.3043 2.26539C10.8833 2.12651 11.4697 2.0371 12.0645 2.01617C12.0979 2.01522 12.1313 2.00571 12.1647 2C12.3939 2 12.6221 2 12.8513 2C12.8847 2.00571 12.9172 2.01427 12.9506 2.01617C13.0582 2.02378 13.1668 2.02758 13.2744 2.03519C13.846 2.078 14.4101 2.17312 14.9613 2.33197C17.575 3.08437 19.5467 4.67954 20.8597 7.11177C21.5602 8.40921 21.936 9.80844 21.9842 11.2961C21.9852 11.3304 21.9944 11.3637 22 11.3979C22 11.6262 22 11.8545 22 12.0828Z" fill="white"/>
</svg>
