<svg width="24" height="24" viewBox="0 0 24 24" fill="none" xmlns="http://www.w3.org/2000/svg">
<path d="M21.9995 7.33249C21.9995 10.4426 21.9995 13.5543 21.9995 16.6643C21.9519 16.8783 21.9074 17.0923 21.8566 17.3063C21.1756 20.1469 18.8768 21.9762 15.9477 21.9937C14.0506 22.0048 12.1519 22.0048 10.2548 21.9921C9.20381 21.9857 8.14649 22.0063 7.10188 21.9081C4.50782 21.6624 2.13443 19.2165 2.06616 16.6231C1.98678 13.6192 1.9725 10.6122 2.05822 7.60989C2.12173 5.36372 3.31081 3.731 5.29366 2.67211C6.09379 2.24412 6.96853 2.11572 7.84962 2.00159C10.6072 2 13.3664 2 16.1255 2C16.2398 2.02219 16.3541 2.0539 16.47 2.06499C18.5704 2.24094 20.1817 3.23326 21.2041 5.05778C21.5915 5.74732 21.7423 6.57002 21.9995 7.33249ZM11.9725 19.9647C11.9725 19.9662 11.9725 19.9678 11.9725 19.9678C13.3219 19.9678 14.6713 19.9805 16.0208 19.9647C18.2767 19.9393 19.95 18.2844 19.9658 16.0303C19.9849 13.2911 19.9801 10.552 19.9595 7.81279C19.9436 5.81866 18.1878 4.06864 16.1922 4.05596C13.4045 4.03852 10.6167 4.0401 7.82898 4.05596C5.82708 4.06705 4.04426 5.84402 4.03314 7.84291C4.01885 10.6122 4.01727 13.3799 4.03314 16.1492C4.04426 18.2115 5.76358 19.9298 7.83533 19.9615C9.21492 19.9821 10.5929 19.9647 11.9725 19.9647Z" fill="white"/>
<path d="M6.82782 11.977C6.87386 9.09838 9.20915 6.79673 12.0382 6.84587C14.9212 6.89659 17.2199 9.21568 17.1866 12.042C17.1533 14.8953 14.7942 17.2223 11.9699 17.1906C9.11389 17.1589 6.78178 14.7939 6.82782 11.977ZM12.0159 15.1505C13.7543 15.1458 15.1418 13.7572 15.1434 12.0214C15.145 10.2809 13.7099 8.84476 11.9874 8.86061C10.2792 8.87646 8.85195 10.3047 8.84401 12.0072C8.83607 13.7429 10.2633 15.1553 12.0159 15.1505Z" fill="white"/>
<path d="M17.19 8.13299C16.5057 8.13775 15.9501 7.59562 15.9405 6.91083C15.931 6.21177 16.5025 5.63636 17.1979 5.64587C17.8694 5.65379 18.4394 6.23079 18.4362 6.89656C18.433 7.56867 17.871 8.12665 17.19 8.13299Z" fill="white"/>
</svg>
